<svg width="72" height="72" viewBox="0 0 72 72" fill="none" xmlns="http://www.w3.org/2000/svg">
<path d="M45.0881 40.2869L46.4474 42.9955L47.7767 40.272L53.1945 29.1722C53.1952 29.1709 53.1959 29.1695 53.1966 29.1681C53.4679 28.6251 53.8229 28.5 54 28.5C54.1735 28.5 54.5285 28.621 54.8012 29.1776C54.8013 29.1779 54.8014 29.1781 54.8015 29.1783L69.6482 59.5887C69.6487 59.5896 69.6491 59.5905 69.6495 59.5913C70.1989 60.729 70.5 62.0507 70.5 63.4078C70.5 67.6498 67.8039 70.5 65.1263 70.5H51.3112H42.8737H6.28875C3.93598 70.5 1.5 67.9856 1.5 64.1391C1.5 62.8859 1.7874 61.6698 2.30733 60.6369L2.30824 60.6351L26.6736 12.0675C26.6739 12.0669 26.6742 12.0663 26.6745 12.0657C27.231 10.9664 28.078 10.5 28.8 10.5C29.5278 10.5 30.3807 10.9721 30.9223 12.0594L30.9243 12.0634L45.0881 40.2869ZM70.5 11.25C70.5 16.9668 66.849 21 63 21C59.151 21 55.5 16.9668 55.5 11.25C55.5 5.53315 59.151 1.5 63 1.5C66.849 1.5 70.5 5.53315 70.5 11.25Z" stroke="#4F4F4F" stroke-width="3"/>
</svg>
