<svg width="15" height="14" viewBox="0 0 15 14" fill="none" xmlns="http://www.w3.org/2000/svg">
<path d="M6.91739 12.2179L6.91631 12.2169C4.96996 10.452 3.41538 9.04037 2.33835 7.7236C1.26993 6.41736 0.75 5.29614 0.75 4.125C0.75 2.22921 2.22921 0.75 4.125 0.75C5.20291 0.75 6.24918 1.25545 6.92899 2.05375L7.5 2.7243L8.07101 2.05375C8.75082 1.25545 9.79709 0.75 10.875 0.75C12.7708 0.75 14.25 2.22921 14.25 4.125C14.25 5.29615 13.7301 6.4174 12.6615 7.72473C11.5844 9.04243 10.03 10.4557 8.08391 12.2242C8.08364 12.2245 8.08337 12.2247 8.0831 12.2249L7.50192 12.75L6.91739 12.2179Z" stroke-width="1.5"/>
</svg>
