<svg width="60" height="60" viewBox="0 0 60 60" fill="none" xmlns="http://www.w3.org/2000/svg">
<path d="M40.207 36.9141C39.9961 36.9258 39.7969 36.9258 39.5859 36.9258C36.1758 36.9258 32.9648 35.6016 30.5508 33.1875C28.1367 30.7734 26.8125 27.5625 26.8125 24.1523C26.8125 22.207 27.2461 20.332 28.0547 18.6328C28.418 17.8828 28.8516 17.168 29.3555 16.5C28.4648 16.5938 27.6094 16.7812 26.7773 17.0391C21.293 18.7734 17.3203 23.8945 17.3203 29.9531C17.3203 37.4297 23.3789 43.4883 30.8555 43.4883C34.9922 43.4883 38.6836 41.6367 41.168 38.7188C41.7305 38.0508 42.2461 37.3242 42.668 36.5508C41.8711 36.75 41.0508 36.8789 40.207 36.9141Z" fill="#BCB14A"/>
</svg>
