<svg width="51" height="51" viewBox="0 0 51 51" fill="none" xmlns="http://www.w3.org/2000/svg">
<path d="M25.5313 38.0681C18.6025 38.0681 12.9658 32.4311 12.9658 25.5022C12.9658 18.5738 18.6025 12.9375 25.5313 12.9375C32.4602 12.9375 38.0969 18.5738 38.0969 25.5022C38.0969 32.4311 32.4602 38.0681 25.5313 38.0681ZM25.5313 14.5312C19.4815 14.5312 14.5596 19.4531 14.5596 25.5022C14.5596 31.5521 19.4819 36.4744 25.5313 36.4744C31.5808 36.4744 36.5031 31.5521 36.5031 25.5022C36.5031 19.4531 31.5812 14.5312 25.5313 14.5312Z" fill="black"/>
<path d="M25.5313 45.4568C25.0914 45.4568 24.7344 45.0998 24.7344 44.66V40.4062C24.7344 39.966 25.0914 39.6094 25.5313 39.6094C25.9711 39.6094 26.3281 39.966 26.3281 40.4062V44.66C26.3281 45.0994 25.9715 45.4568 25.5313 45.4568Z" fill="black"/>
<path d="M25.5313 11.3967C25.0914 11.3967 24.7344 11.0397 24.7344 10.5998V6.3457C24.7344 5.90583 25.0914 5.54883 25.5313 5.54883C25.9711 5.54883 26.3281 5.90583 26.3281 6.3457V10.5998C26.3281 11.0401 25.9715 11.3967 25.5313 11.3967Z" fill="black"/>
<path d="M44.6883 26.2988H40.4346C39.9947 26.2988 39.6377 25.9418 39.6377 25.502C39.6377 25.0621 39.9947 24.7051 40.4346 24.7051H44.6883C45.1282 24.7051 45.4852 25.0621 45.4852 25.502C45.4852 25.9414 45.1286 26.2988 44.6883 26.2988Z" fill="black"/>
<path d="M10.6287 26.2988H6.375C5.93513 26.2988 5.57812 25.9418 5.57812 25.502C5.57812 25.0621 5.93513 24.7051 6.375 24.7051H10.6287C11.0686 24.7051 11.4256 25.0621 11.4256 25.502C11.4256 25.9414 11.0686 26.2988 10.6287 26.2988Z" fill="black"/>
<path d="M39.0766 39.8456C38.8726 39.8456 38.669 39.7679 38.5133 39.6121L35.5058 36.6043C35.1947 36.2931 35.1947 35.7887 35.5058 35.4775C35.817 35.1663 36.3214 35.1663 36.6326 35.4775L39.64 38.4853C39.9512 38.7965 39.9512 39.3009 39.64 39.6121C39.4846 39.7679 39.2806 39.8456 39.0766 39.8456Z" fill="black"/>
<path d="M14.9931 15.7616C14.7891 15.7616 14.5855 15.6839 14.4298 15.5281L11.4223 12.5203C11.1112 12.2091 11.1112 11.7043 11.4223 11.3935C11.7335 11.0824 12.238 11.0824 12.5491 11.3935L15.5565 14.4013C15.8677 14.7125 15.8677 15.2173 15.5565 15.5281C15.4007 15.6839 15.1971 15.7616 14.9931 15.7616Z" fill="black"/>
<path d="M36.0692 15.7616C35.8652 15.7616 35.6616 15.6839 35.5058 15.5281C35.1947 15.2169 35.1947 14.7121 35.5058 14.4013L38.5141 11.3935C38.8252 11.0824 39.3296 11.0824 39.6408 11.3935C39.952 11.7047 39.952 12.2095 39.6408 12.5203L36.6326 15.5281C36.4772 15.6839 36.2732 15.7616 36.0692 15.7616Z" fill="black"/>
<path d="M11.9857 39.8456C11.7817 39.8456 11.5781 39.7679 11.4223 39.6121C11.1112 39.3009 11.1112 38.7957 11.4223 38.4853L14.4302 35.4775C14.7413 35.1663 15.2458 35.1663 15.5569 35.4775C15.8681 35.7887 15.8681 36.2939 15.5569 36.6043L12.5491 39.6121C12.3933 39.7679 12.1897 39.8456 11.9857 39.8456Z" fill="black"/>
</svg>
