<svg width="72" height="72" viewBox="0 0 72 72" fill="none" xmlns="http://www.w3.org/2000/svg">
<path d="M63.2143 10.2857V8.78572H61.7143H41.1429H39.6429V10.2857V30.8571V32.3571H41.1429H61.7143H63.2143V30.8571V10.2857ZM63.2143 41.1429V39.6429H61.7143H41.1429H39.6429V41.1429V61.7143V63.2143H41.1429H61.7143H63.2143V61.7143V41.1429ZM30.8571 32.3571H32.3571V30.8571V10.2857V8.78572H30.8571H10.2857H8.78571V10.2857V30.8571V32.3571H10.2857H30.8571ZM10.2857 39.6429H8.78571V41.1429V61.7143V63.2143H10.2857H30.8571H32.3571V61.7143V41.1429V39.6429H30.8571H10.2857ZM1.5 10.2857C1.5 5.44093 5.44093 1.5 10.2857 1.5H61.7143C66.5591 1.5 70.5 5.44093 70.5 10.2857V61.7143C70.5 66.5591 66.5591 70.5 61.7143 70.5H10.2857C5.44093 70.5 1.5 66.5591 1.5 61.7143V10.2857Z" fill="white" stroke="#4F4F4F" stroke-width="3"/>
</svg>
