<svg width="98" height="98" viewBox="0 0 98 98" fill="none" xmlns="http://www.w3.org/2000/svg">
<path d="M85.5 14V12.5H84H56H54.5V14V42V43.5H56H84H85.5V42V14ZM85.5 56V54.5H84H56H54.5V56V84V85.5H56H84H85.5V84V56ZM42 43.5H43.5V42V14V12.5H42H14H12.5V14V42V43.5H14H42ZM14 54.5H12.5V56V84V85.5H14H42H43.5V84V56V54.5H42H14ZM1.5 14C1.5 7.10655 7.10655 1.5 14 1.5H84C90.8935 1.5 96.5 7.10655 96.5 14V84C96.5 90.8934 90.8935 96.5 84 96.5H14C7.10655 96.5 1.5 90.8934 1.5 84V14Z" stroke="#4F4F4F" stroke-width="3"/>
</svg>
