<svg width="92" height="92" viewBox="0 0 92 92" fill="none" xmlns="http://www.w3.org/2000/svg">
<g clip-path="url(#clip0_796_3386)">
<path d="M44.7771 11.7946L46 13.516L47.2229 11.7946L53.4494 3.02953C53.4499 3.02876 53.4505 3.02799 53.451 3.02722C54.7348 1.23407 56.9117 1.01489 58.4102 2.37091C60.0281 3.83492 60.3268 6.5903 58.9928 8.47533C58.9928 8.47536 58.9928 8.47539 58.9928 8.47542C58.9923 8.47608 58.9918 8.47675 58.9914 8.47742L51.3262 19.2566L50.708 20.1258L51.3261 20.9951L88.8129 73.7154L88.8171 73.7213C89.9001 75.2289 90.5 77.1466 90.5 79.1352V83.3759C90.5 87.4801 87.5763 90.5009 84.3333 90.5009H46H7.66667C4.42367 90.5009 1.5 87.4801 1.5 83.3759V79.1352C1.5 77.1506 2.09784 75.2471 3.18702 73.7155L3.18705 73.7154L40.6739 20.9951L41.292 20.1258L40.6738 19.2566L33.0086 8.47742C33.0085 8.47715 33.0083 8.47689 33.0081 8.47662C31.6708 6.58829 31.9756 3.81845 33.5848 2.37542C35.0951 1.02109 37.2874 1.24661 38.5469 3.0243L38.548 3.0258L44.7771 11.7946ZM25.6726 79.6577L24.0802 82.0009H26.9132H46H65.0868H67.9198L66.3274 79.6577L47.2406 51.5726L46 49.7471L44.7594 51.5726L25.6726 79.6577Z" stroke="#4F4F4F" stroke-width="3"/>
</g>
<defs>
<clipPath id="clip0_796_3386">
<rect width="92" height="92" fill="white"/>
</clipPath>
</defs>
</svg>
