<svg width="72" height="72" viewBox="0 0 72 72" fill="none" xmlns="http://www.w3.org/2000/svg">
<path d="M34.7771 9.41809L36 11.1395L37.2229 9.41809L42.0952 2.55931C42.0956 2.55878 42.096 2.55825 42.0963 2.55772C42.9946 1.303 44.474 1.17339 45.4935 2.09601C46.6326 3.12674 46.8547 5.09782 45.9017 6.44382C45.9015 6.44411 45.9013 6.44441 45.9011 6.44471L39.9026 14.8801L39.2844 15.7494L39.9025 16.6186L69.24 57.878L69.2442 57.8839C70.0494 59.0048 70.5 60.4381 70.5 61.9306V65.2494C70.5 68.3185 68.3229 70.4994 66 70.4994H36H6C3.67714 70.4994 1.5 68.3185 1.5 65.2494V61.9306C1.5 60.4421 1.94853 59.0191 2.75993 57.8781L2.75997 57.878L32.0975 16.6186L32.7156 15.7494L32.0974 14.8801L26.0989 6.44471C26.0987 6.44441 26.0985 6.44411 26.0983 6.44382C25.143 5.09455 25.3714 3.11385 26.5014 2.10052C27.5326 1.17588 29.0235 1.31546 29.9011 2.55409L29.9021 2.55559L34.7771 9.41809ZM19.8219 62.1563L18.2295 64.4994H21.0625H36H50.9375H53.7705L52.1781 62.1563L37.2406 40.1766L36 38.3511L34.7594 40.1766L19.8219 62.1563Z" fill="white" stroke="#4F4F4F" stroke-width="3"/>
</svg>
