<svg width="317" height="282" viewBox="0 0 317 282" fill="none" xmlns="http://www.w3.org/2000/svg">
<g clip-path="url(#clip0_791_3381)">
<path d="M101.605 78.083L101.558 78.0359C122.828 60.454 151.16 45.5625 184.917 45.5625C219.341 45.5625 248.124 61.0491 269.529 79.0827C290.881 97.1183 306.061 118.656 313.739 133.588C316.105 138.225 316.105 143.719 313.739 148.356C306.061 163.288 290.881 184.827 269.528 202.863L269.527 202.864C248.124 220.951 219.341 236.438 184.917 236.438C150.493 236.438 121.711 220.952 100.306 202.919C91.4641 195.436 83.6544 187.347 76.9891 179.364L76.1773 178.392L75.0828 179.03L25.7166 207.78L25.7147 207.782C19.4214 211.46 11.4147 210.452 6.22901 205.312C1.04663 200.176 -0.0148024 192.217 3.61372 185.862C3.61379 185.862 3.61386 185.861 3.61392 185.861L28.8196 141.744L29.2448 141L28.8196 140.256L3.61392 96.1387C3.61386 96.1385 3.61379 96.1384 3.61372 96.1383C-0.0102899 89.7909 1.09521 81.8302 6.28404 76.6877C11.4679 71.5501 19.4206 70.5382 25.7723 74.22C25.7729 74.2204 25.7736 74.2207 25.7742 74.2211L75.1367 103.025L76.2317 103.664L77.0441 102.691C83.7095 94.7079 91.5192 86.6193 100.362 79.1356L101.605 78.083ZM248.055 141C248.055 130.424 239.515 121.875 228.944 121.875C218.374 121.875 209.833 130.424 209.833 141C209.833 151.576 218.374 160.125 228.944 160.125C239.515 160.125 248.055 151.576 248.055 141Z" stroke="#4F4F4F" stroke-width="3"/>
</g>
<defs>
<clipPath id="clip0_791_3381">
<rect width="317" height="282" fill="white"/>
</clipPath>
</defs>
</svg>
