<svg width="117" height="82" viewBox="0 0 117 82" fill="none" xmlns="http://www.w3.org/2000/svg">
<path d="M36.7593 15.1873L35.6978 16.1885L35.7298 16.2243C33.3284 18.5997 31.1566 21.0977 29.231 23.5858L13.1168 13.0579L13.1132 13.0555C10.0445 11.0633 6.18559 11.6373 3.72522 14.3674C1.31079 17.0466 0.821813 21.1316 2.48201 24.3871L2.48218 24.3875L10.9592 41L2.48218 57.6125L2.48201 57.6129C0.825431 60.8613 1.28635 64.9477 3.70595 67.6326C6.16452 70.3607 10.0442 70.9393 13.0971 68.9424C13.0976 68.9421 13.098 68.9418 13.0985 68.9415L29.211 58.4348C31.4126 61.2797 33.9362 64.1376 36.7568 66.8104L36.7593 66.8127C44.467 74.0835 55.0103 80.5 67.7509 80.5C80.4919 80.5 91.0357 74.0832 98.7443 66.7896C106.436 59.5154 111.898 50.844 114.684 44.7783L114.686 44.7745C115.771 42.3929 115.771 39.5855 114.686 37.2039L114.684 37.2001C111.898 31.1343 106.436 22.4629 98.744 15.1886L98.7426 15.1873C91.0349 7.91655 80.4916 1.5 67.7509 1.5C55.0103 1.5 44.467 7.91655 36.7593 15.1873ZM83.1657 35.5909C85.5918 35.5909 87.8316 37.8418 87.8316 41C87.8316 44.1582 85.5918 46.4091 83.1657 46.4091C80.7396 46.4091 78.4998 44.1582 78.4998 41C78.4998 37.8418 80.7396 35.5909 83.1657 35.5909Z" stroke="#4F4F4F" stroke-width="3"/>
</svg>
