<svg width="91" height="102" viewBox="0 0 91 102" fill="none" xmlns="http://www.w3.org/2000/svg">
<path d="M42.0131 2.36301L42.0143 2.36236C44.2293 1.21255 46.7707 1.21255 48.9857 2.36237L48.9869 2.36301L87.8396 22.4861L87.8434 22.488C88.7912 22.9755 89.5 24.1118 89.5 25.4975C89.5 26.8832 88.7912 28.0195 87.8434 28.507L87.8396 28.509L48.9869 48.632L48.9857 48.6327C46.7707 49.7825 44.2293 49.7825 42.0143 48.6327L42.0131 48.632L3.17038 28.5142C3.16889 28.5134 3.16739 28.5126 3.1659 28.5118C2.20207 28.001 1.5 26.8539 1.5 25.4975C1.5 24.1283 2.21164 22.974 3.15659 22.488L3.16037 22.4861L42.0131 2.36301ZM87.8392 47.9883L87.8434 47.9905C88.7912 48.478 89.5 49.6143 89.5 51C89.5 52.3857 88.7912 53.522 87.8434 54.0095L87.8396 54.0114L48.9869 74.1345L48.9857 74.1351C46.7707 75.285 44.2293 75.285 42.0143 74.1351L42.0131 74.1345L3.17038 54.0167C3.16894 54.0159 3.1675 54.0152 3.16606 54.0144C2.20215 53.5036 1.5 52.3564 1.5 51C1.5 49.6308 2.21164 48.4765 3.15659 47.9905L3.16081 47.9883L11.9264 43.4447L38.252 57.0739L38.2523 57.0741C42.8436 59.4496 48.1564 59.4496 52.7477 57.0741L52.748 57.0739L79.0736 43.4447L87.8392 47.9883ZM52.7477 82.5766L52.748 82.5764L79.0736 68.9472L87.8392 73.4908L87.8434 73.493C88.7912 73.9805 89.5 75.1168 89.5 76.5025C89.5 77.8882 88.7912 79.0245 87.8434 79.512L87.8396 79.5139L48.9869 99.637L48.9857 99.6376C46.7707 100.787 44.2293 100.787 42.0143 99.6376L42.0131 99.637L3.17038 79.5192C3.16894 79.5184 3.1675 79.5176 3.16606 79.5169C2.20215 79.0061 1.5 77.8589 1.5 76.5025C1.5 75.1333 2.21164 73.979 3.15659 73.493L3.16081 73.4908L11.9264 68.9472L38.252 82.5764L38.2523 82.5766C42.8436 84.952 48.1564 84.952 52.7477 82.5766Z" stroke="#4F4F4F" stroke-width="3"/>
</svg>
