<svg width="277" height="246" viewBox="0 0 277 246" fill="none" xmlns="http://www.w3.org/2000/svg">
<path d="M127.827 3.86004L127.828 3.8595C134.594 0.729126 142.405 0.729126 149.171 3.8595L149.172 3.86004L254.298 52.3874L254.301 52.389C257.85 54.0156 260.111 57.5628 260.111 61.4997C260.111 65.4366 257.85 68.9838 254.301 70.6104L254.298 70.612L149.172 119.139L149.171 119.14C142.405 122.27 134.594 122.27 127.828 119.14L127.827 119.139L22.7114 70.6165C22.71 70.6158 22.7085 70.6151 22.707 70.6144C19.1438 68.937 16.8887 65.3807 16.8887 61.4997C16.8887 57.6073 19.1532 54.0141 22.6983 52.389L22.7019 52.3874L127.827 3.86004ZM254.297 113.887L254.301 113.889C257.85 115.516 260.111 119.063 260.111 123C260.111 126.937 257.85 130.484 254.301 132.11L254.298 132.112L149.172 180.639L149.171 180.64C142.405 183.77 134.594 183.77 127.828 180.64L127.827 180.639L22.7114 132.116C22.7103 132.116 22.7091 132.115 22.7079 132.115C19.1441 130.438 16.8887 126.881 16.8887 123C16.8887 119.107 19.1532 115.514 22.6983 113.889L22.7023 113.887L47.6576 102.358L120.126 135.797L120.126 135.797C131.778 141.17 145.222 141.17 156.873 135.797L156.874 135.797L229.342 102.358L254.297 113.887ZM156.873 197.297L156.874 197.297L229.342 163.858L254.297 175.387L254.301 175.389C257.85 177.016 260.111 180.563 260.111 184.5C260.111 188.437 257.85 191.984 254.301 193.61L254.298 193.612L149.172 242.139L149.171 242.14C142.405 245.27 134.594 245.27 127.828 242.14L127.827 242.139L22.7114 193.616C22.7103 193.616 22.7091 193.615 22.7079 193.615C19.1441 191.938 16.8887 188.381 16.8887 184.5C16.8887 180.607 19.1532 177.014 22.6983 175.389L22.7023 175.387L47.6576 163.858L120.126 197.297L120.126 197.297C131.778 202.67 145.222 202.67 156.873 197.297Z" stroke="#4F4F4F" stroke-width="3"/>
</svg>
