<svg width="103" height="103" viewBox="0 0 103 103" fill="none" xmlns="http://www.w3.org/2000/svg">
<path d="M2.31366 86.7769L2.31446 86.7783L10.0388 99.6519L2.31366 86.7769ZM2.31366 86.7769C0.940335 84.4935 1.37401 81.2388 3.08544 79.6306C3.89347 78.8713 4.79662 78.6487 5.61007 78.7944M2.31366 86.7769L5.61007 78.7944M15.7081 93.4731L15.7073 93.4717L7.98294 80.5981L15.7081 93.4731ZM15.7081 93.4731C17.0814 95.7565 16.6477 99.0112 14.9363 100.619C14.1283 101.379 13.2251 101.601 12.4117 101.456M15.7081 93.4731L12.4117 101.456M5.61007 78.7944C6.43723 78.9426 7.32327 79.502 7.98214 80.5968L5.61007 78.7944ZM12.4117 101.456C11.5845 101.307 10.6985 100.748 10.0396 99.6533L12.4117 101.456ZM84.7121 3.08151L84.7122 3.0814C85.8787 2.02098 87.2167 1.5 88.5637 1.5C90.5475 1.5 92.5472 2.66295 93.8903 4.91298L93.893 4.91745L96.8203 9.78285L96.8221 9.78581L100.071 15.2145L100.072 15.2159C100.984 16.7363 101.5 18.6387 101.5 20.6C101.5 23.5226 100.377 26.173 98.6112 27.7784L60.5974 62.3193L60.5939 62.3225C58.2735 64.4444 55.7841 66.272 53.1891 67.787L31.4206 80.4771C31.4197 80.4776 31.4188 80.4781 31.4179 80.4787C29.223 81.7452 27.1431 83.299 25.2088 85.0498L25.2051 85.0531L22.2227 87.7706L14.7189 75.2645L18.4851 71.8422L18.4885 71.8391C20.2922 70.1898 21.9773 68.3544 23.511 66.3539L23.5117 66.3531L39.9746 44.8494C39.975 44.8489 39.9754 44.8484 39.9757 44.8479C41.8398 42.4202 43.8555 40.2142 46.0217 38.2467L46.0221 38.2464L84.7121 3.08151ZM91.1998 86.9062C91.1998 95.2992 85.8147 101.5 79.8246 101.5C73.8345 101.5 68.4494 95.2992 68.4494 86.9062C68.4494 78.5133 73.8345 72.3125 79.8246 72.3125C85.8147 72.3125 91.1998 78.5133 91.1998 86.9062Z" stroke="#4F4F4F" stroke-width="3"/>
</svg>
