<svg width="72" height="72" viewBox="0 0 72 72" fill="none" xmlns="http://www.w3.org/2000/svg">
<path d="M59.5189 2.48814L59.519 2.48804C60.2592 1.81511 61.0885 1.5 61.9075 1.5C63.1066 1.5 64.37 2.20278 65.2433 3.66571L65.2459 3.67018L67.2917 7.07034L67.2934 7.0733L69.5642 10.8672L69.565 10.8686C70.1576 11.8562 70.4987 13.1047 70.4987 14.4C70.4987 16.3357 69.7537 18.0598 68.6272 19.0838L42.055 43.2289L42.0515 43.2321C40.4528 44.694 38.7385 45.9525 36.9525 46.9952L21.7379 55.8648C21.737 55.8653 21.7361 55.8658 21.7351 55.8664C20.17 56.7696 18.6908 57.8753 17.3184 59.1176L17.3147 59.1209L15.6375 60.6491L10.8664 52.6972L13.225 50.5539L13.2284 50.5508C14.509 49.3799 15.7048 48.0772 16.7929 46.658L16.7935 46.6571L28.301 31.626C28.3012 31.6258 28.3013 31.6257 28.3014 31.6255C29.5892 29.9482 30.9803 28.426 32.4735 27.0697L32.4739 27.0694L59.5189 2.48814ZM2.00499 60.4283L2.00418 60.4269C1.14432 58.9972 1.43753 56.9595 2.46595 55.9931C2.93248 55.5547 3.42146 55.4486 3.84193 55.524C4.27615 55.6017 4.79041 55.9039 5.19251 56.5717C5.19254 56.5718 5.19258 56.5719 5.19261 56.5719C5.19285 56.5723 5.19308 56.5727 5.19332 56.5731L10.5925 65.5717L10.5933 65.5731C11.4532 67.0028 11.16 69.0405 10.1315 70.0069C9.66502 70.4453 9.17603 70.5514 8.75556 70.476C8.32108 70.3982 7.80647 70.0957 7.40426 69.427C7.40424 69.427 7.40421 69.427 7.40418 69.4269L2.00499 60.4283ZM63.2988 60.75C63.2988 66.4668 59.6478 70.5 55.7987 70.5C51.9497 70.5 48.2987 66.4668 48.2987 60.75C48.2987 55.0332 51.9497 51 55.7987 51C59.6478 51 63.2988 55.0332 63.2988 60.75Z" fill="white" stroke="#4F4F4F" stroke-width="3"/>
</svg>
